<svg width="1511" height="171" viewBox="0 0 1511 171" fill="none" xmlns="http://www.w3.org/2000/svg">
<path d="M1306.87 165.948L1376.64 81.0547L1314.55 4.28906H1376.41L1409.37 46.7359L1442.34 4.28906H1504.43L1441.89 79.4742L1510.07 165.948H1446.4L1409.15 118.083L1371.44 165.948H1306.87Z" fill="white"/>
<path d="M1132.27 165.948V4.28906H1222.13C1283.31 4.28906 1305.22 20.9969 1305.22 57.1219C1305.22 79.0227 1295.06 92.3438 1273.15 99.1172C1295.96 104.536 1303.18 117.18 1303.18 143.822V154.208C1303.18 159.175 1304.76 163.691 1308.83 165.948H1251.93C1247.42 164.142 1246.51 159.175 1246.51 155.111V142.919C1246.51 125.082 1239.74 119.889 1218.06 119.889H1185.55V165.948H1132.27ZM1222.81 46.7359H1185.55V79.4742H1222.13C1238.84 79.4742 1250.12 76.5391 1250.12 63.8953V62.5406C1250.12 50.3484 1241.77 46.7359 1222.81 46.7359Z" fill="white"/>
<path d="M956.689 165.948C953.918 165.948 951.671 163.702 951.671 160.931V104.48C951.671 102.253 953.14 100.292 955.277 99.6652L980.434 92.2863C985.016 90.9427 985.308 84.5644 980.869 82.8068L954.842 72.5009C952.928 71.7432 951.671 69.8939 951.671 67.8359V9.30643C951.671 6.53542 953.918 4.28906 956.689 4.28906H1103.12C1105.89 4.28906 1108.14 6.53541 1108.14 9.30642V64.8891C1108.14 68.1314 1105.11 70.5223 1101.96 69.7693L1008.71 47.5044C1007.35 47.1804 1006.46 48.8776 1007.49 49.8153C1007.57 49.8861 1007.65 49.9475 1007.75 49.9982L1060.83 79.2231C1062.43 80.1052 1063.43 81.7893 1063.43 83.6183V91.2091C1063.43 93.1823 1062.27 94.9722 1060.47 95.7831L1003.68 121.384C1003.63 121.407 1003.58 121.436 1003.53 121.469C1002.76 122.021 1003.29 123.238 1004.22 123.039L1102.38 101.959C1105.4 101.311 1108.28 103.52 1108.44 106.605L1111.25 160.671C1111.4 163.54 1109.11 165.948 1106.24 165.948H956.689Z" fill="white"/>
<path d="M813.18 170.465C763.508 170.465 733.028 144.274 733.028 88.9578V88.2805C733.028 31.3836 772.088 0 831.468 0C885.881 0 921.103 19.643 926.974 64.7992H866.013C862.4 53.2844 852.466 47.1883 831.242 47.1883C804.149 47.1883 789.473 59.3805 789.473 87.8289C789.473 113.116 801.891 126.437 830.339 126.437C853.82 126.437 867.142 119.664 871.431 107.246H824.017V77.443H927.425V165.949H879.56L876.173 121.019C871.431 155.789 850.885 170.465 813.18 170.465Z" fill="white"/>
<path d="M600.407 170.465C550.736 170.465 520.255 144.274 520.255 88.9578V88.2805C520.255 31.3836 559.315 0 618.696 0C673.109 0 708.331 19.643 714.201 64.7992H653.24C649.628 53.2844 639.693 47.1883 618.47 47.1883C591.376 47.1883 576.7 59.3805 576.7 87.8289C576.7 113.116 589.118 126.437 617.567 126.437C641.048 126.437 654.369 119.664 658.659 107.246H611.245V77.443H714.653V165.949H666.787L663.4 121.019C658.659 155.789 638.113 170.465 600.407 170.465Z" fill="white"/>
<path d="M374.554 116.954H414.743V52.6062H374.554V4.28906H507.539V52.6062H467.124V116.954H507.539V165.948H374.554V116.954Z" fill="white"/>
<path d="M183.942 165.948V4.28906H273.803C334.989 4.28906 356.89 20.9969 356.89 57.1219C356.89 79.0227 346.73 92.3438 324.829 99.1172C347.633 104.536 354.858 117.18 354.858 143.822V154.208C354.858 159.175 356.439 163.691 360.503 165.948H303.606C299.09 164.142 298.187 159.175 298.187 155.111V142.919C298.187 125.082 291.414 119.889 269.739 119.889H237.226V165.948H183.942ZM274.48 46.7359H237.226V79.4742H273.803C290.51 79.4742 301.799 76.5391 301.799 63.8953V62.5406C301.799 50.3484 293.446 46.7359 274.48 46.7359Z" fill="white"/>
<path d="M54.0292 165.948V51.7031H1.64795V4.28906H163.759V51.7031H109.571V165.948H54.0292Z" fill="white"/>
<path fill-rule="evenodd" clip-rule="evenodd" d="M1 44.2773C1.52997 45.7401 3.54385 48.4148 7.35961 47.4117C11.1754 46.4087 13.5426 49.0834 14.2492 50.5461C15.6624 51.5909 19.1249 53.0537 21.6687 50.5461C24.8486 47.4117 31.7381 44.9042 35.4479 50.5461C36.6845 51.5909 40.0056 53.0537 43.3974 50.5461C47.6372 47.4117 59.2965 46.158 55.5867 61.2031C53.9968 64.1286 51.7709 71.1078 55.5867 75.6214C59.4025 80.1349 56.47 86.2783 54.5268 88.7858C53.6435 90.4575 52.4069 94.8039 54.5268 98.8159C55.5946 100.837 56.4903 104.283 56.2428 107.391C56.4156 109.105 56.238 111.244 55.5867 113.886C53.9968 116.811 51.7709 123.79 55.5867 128.304C59.4025 132.817 56.47 138.961 54.5268 141.468C53.6435 143.14 52.4069 147.486 54.5268 151.498C57.1766 156.513 58.7665 170.305 44.4574 165.917C42.5142 163.827 37.6738 160.902 33.858 165.917C32.2681 167.379 28.1344 169.552 24.3186 166.543C19.5489 162.782 15.8391 163.409 11.5994 165.917C11.0694 166.961 9.58548 168.8 7.88958 167.797C5.76971 166.543 1.52997 167.797 1.52997 169.678C1.52997 171.182 1.17666 121.826 1 96.9598C1.08723 97.2005 1.21467 97.4741 1.38372 97.7587C1.26569 81.5482 1.10288 58.7594 1 44.2773Z" fill="black"/>
<path d="M7.35961 47.4117L7.20017 46.8052L7.35961 47.4117ZM1 44.2773L1.58966 44.0637L0.372846 44.2818L1 44.2773ZM14.2492 50.5461L13.6845 50.819L13.7518 50.9584L13.8764 51.0505L14.2492 50.5461ZM21.6687 50.5461L21.2285 50.0995L21.6687 50.5461ZM35.4479 50.5461L34.9239 50.8907L34.9738 50.9666L35.0431 51.0252L35.4479 50.5461ZM43.3974 50.5461L43.0246 50.0418V50.0418L43.3974 50.5461ZM55.5867 61.2031L56.1377 61.5026L56.1763 61.4317L56.1956 61.3533L55.5867 61.2031ZM54.5268 88.7858L54.031 88.4017L53.9977 88.4447L53.9722 88.4928L54.5268 88.7858ZM54.5268 98.8159L55.0813 98.5229V98.5229L54.5268 98.8159ZM56.2428 107.391L55.6176 107.341L55.6131 107.397L55.6188 107.453L56.2428 107.391ZM55.5867 113.886L56.1377 114.185L56.1763 114.114L56.1956 114.036L55.5867 113.886ZM54.5268 141.468L54.031 141.084L53.9977 141.127L53.9722 141.175L54.5268 141.468ZM54.5268 151.498L55.0813 151.205L54.5268 151.498ZM44.4574 165.917L43.9981 166.344L44.1127 166.467L44.2735 166.516L44.4574 165.917ZM33.858 165.917L34.2826 166.378L34.3235 166.341L34.3571 166.296L33.858 165.917ZM24.3186 166.543L24.7069 166.051L24.3186 166.543ZM11.5994 165.917L11.2801 165.377L11.1227 165.47L11.04 165.633L11.5994 165.917ZM7.88958 167.797L8.20885 167.257H8.20885L7.88958 167.797ZM1 96.9598L1.58966 96.7461L0.372846 96.9642L1 96.9598ZM1.38372 97.7587L0.844493 98.079L2.02774 100.071L2.01087 97.7542L1.38372 97.7587ZM7.20017 46.8052C5.47321 47.2591 4.20418 46.8776 3.30512 46.2539C2.38161 45.6132 1.8177 44.6931 1.58966 44.0637L0.41034 44.491C0.712271 45.3243 1.42028 46.4729 2.59014 47.2845C3.78446 48.1131 5.43025 48.5674 7.51906 48.0183L7.20017 46.8052ZM14.8139 50.2733C14.4162 49.4499 13.5732 48.3197 12.3037 47.5231C11.0147 46.7142 9.29196 46.2553 7.20017 46.8052L7.51906 48.0183C9.24303 47.5651 10.6118 47.9422 11.637 48.5855C12.6817 49.2411 13.3756 50.1796 13.6845 50.819L14.8139 50.2733ZM21.2285 50.0995C20.1242 51.188 18.8317 51.4198 17.6185 51.2567C16.3835 51.0907 15.2619 50.5149 14.622 50.0418L13.8764 51.0505C14.6497 51.6222 15.966 52.3002 17.4514 52.4998C18.9588 52.7025 20.6694 52.4118 22.109 50.9928L21.2285 50.0995ZM35.972 50.2016C33.9663 47.1514 31.0659 46.2949 28.2841 46.6324C25.5436 46.9649 22.9025 48.4494 21.2285 50.0995L22.109 50.9928C23.6148 49.5085 26.0084 48.172 28.4351 47.8776C30.8204 47.5882 33.2197 48.299 34.9239 50.8907L35.972 50.2016ZM43.0246 50.0418C39.9442 52.3192 36.9506 50.9947 35.8527 50.0671L35.0431 51.0252C36.4184 52.1872 40.0671 53.7882 43.7703 51.0505L43.0246 50.0418ZM56.1956 61.3533C57.1381 57.5311 57.1275 54.6583 56.4395 52.555C55.7424 50.4241 54.3634 49.1284 52.7032 48.4739C51.0678 47.829 49.1992 47.8194 47.4904 48.158C45.7807 48.4968 44.1685 49.1962 43.0246 50.0418L43.7703 51.0505C44.7463 50.3289 46.1814 49.6961 47.7342 49.3885C49.288 49.0806 50.8974 49.1102 52.2431 49.6408C53.564 50.1616 54.6691 51.1775 55.2473 52.945C55.8345 54.7401 55.8902 57.3526 54.9778 61.053L56.1956 61.3533ZM56.0656 75.2164C54.3084 73.1379 53.915 70.4611 54.1834 67.8816C54.4517 65.3023 55.3754 62.9053 56.1377 61.5026L55.0356 60.9036C54.2081 62.4264 53.2239 64.9817 52.9358 67.7518C52.6476 70.5217 53.0492 73.5912 55.1077 76.0263L56.0656 75.2164ZM55.0225 89.17C56.0398 87.8572 57.3083 85.6085 57.8305 83.0829C58.3553 80.5448 58.1348 77.664 56.0656 75.2164L55.1077 76.0263C56.8544 78.0923 57.0755 80.5399 56.6022 82.8289C56.1263 85.1302 54.9569 87.2069 54.031 88.4017L55.0225 89.17ZM55.0813 98.5229C53.0931 94.7601 54.2539 90.6447 55.0813 89.0788L53.9722 88.4928C53.033 90.2704 51.7207 94.8477 53.9722 99.1089L55.0813 98.5229ZM56.868 107.44C57.1257 104.205 56.2003 100.641 55.0813 98.5229L53.9722 99.1089C54.9889 101.033 55.855 104.361 55.6176 107.341L56.868 107.44ZM56.1956 114.036C56.8585 111.347 57.0488 109.134 56.8668 107.328L55.6188 107.453C55.7824 109.077 55.6175 111.141 54.9778 113.735L56.1956 114.036ZM56.0656 127.899C54.3084 125.82 53.915 123.143 54.1834 120.564C54.4517 117.985 55.3754 115.588 56.1377 114.185L55.0356 113.586C54.2081 115.109 53.2239 117.664 52.9358 120.434C52.6476 123.204 53.0492 126.274 55.1077 128.709L56.0656 127.899ZM55.0225 141.852C56.0398 140.54 57.3083 138.291 57.8305 135.765C58.3553 133.227 58.1348 130.346 56.0656 127.899L55.1077 128.709C56.8544 130.775 57.0755 133.222 56.6022 135.511C56.1263 137.813 54.9569 139.889 54.031 141.084L55.0225 141.852ZM55.0813 151.205C53.0931 147.442 54.2539 143.327 55.0813 141.761L53.9722 141.175C53.033 142.953 51.7207 147.53 53.9722 151.791L55.0813 151.205ZM44.2735 166.516C47.9223 167.635 50.67 167.632 52.6799 166.8C54.7151 165.957 55.8817 164.312 56.4523 162.414C57.0181 160.532 57.0101 158.374 56.7034 156.388C56.3963 154.401 55.7811 152.53 55.0813 151.205L53.9722 151.791C54.5973 152.974 55.1746 154.708 55.4637 156.58C55.7532 158.454 55.7452 160.409 55.2511 162.053C54.7617 163.681 53.8084 164.975 52.2001 165.641C50.5664 166.317 48.147 166.392 44.6412 165.317L44.2735 166.516ZM34.3571 166.296C35.2534 165.118 36.1826 164.441 37.0787 164.091C37.9744 163.742 38.8764 163.704 39.7431 163.869C41.5 164.201 43.0837 165.36 43.9981 166.344L44.9166 165.489C43.8878 164.383 42.0797 163.035 39.9767 162.636C38.9134 162.435 37.7684 162.476 36.6227 162.923C35.4772 163.37 34.3706 164.207 33.3589 165.537L34.3571 166.296ZM23.9302 167.036C26.0033 168.671 28.1854 168.903 30.0488 168.521C31.888 168.145 33.4188 167.173 34.2826 166.378L33.4334 165.455C32.7073 166.123 31.3763 166.969 29.7972 167.293C28.2424 167.611 26.4497 167.425 24.7069 166.051L23.9302 167.036ZM11.9186 166.456C13.9972 165.227 15.8694 164.506 17.7602 164.506C19.6363 164.506 21.6233 165.217 23.9302 167.036L24.7069 166.051C22.2442 164.109 19.9915 163.252 17.7602 163.252C15.5438 163.252 13.4413 164.099 11.2801 165.377L11.9186 166.456ZM7.57031 168.337C8.69604 169.003 9.76371 168.696 10.5469 168.135C11.3039 167.593 11.865 166.779 12.1587 166.2L11.04 165.633C10.8037 166.099 10.3579 166.727 9.81653 167.115C9.30125 167.484 8.77902 167.595 8.20885 167.257L7.57031 168.337ZM2.15714 169.678C2.15714 169.46 2.27906 169.189 2.62941 168.894C2.97634 168.602 3.48793 168.342 4.09267 168.164C5.32795 167.798 6.71799 167.833 7.57031 168.337L8.20885 167.257C6.9413 166.508 5.15154 166.542 3.73697 166.961C3.0168 167.174 2.33596 167.502 1.82169 167.934C1.31085 168.364 0.902798 168.955 0.902798 169.678H2.15714ZM0.372846 96.9642C0.461174 109.397 0.593666 127.953 0.704076 143.212C0.759281 150.842 0.808966 157.648 0.84485 162.452C0.862792 164.854 0.877284 166.756 0.887291 168.01C0.892294 168.637 0.896179 169.103 0.898814 169.388C0.900127 169.53 0.901141 169.629 0.901836 169.681C0.902009 169.694 0.902177 169.705 0.902341 169.713C0.902417 169.717 0.902526 169.722 0.902679 169.727C0.902767 169.73 0.902993 169.736 0.903167 169.74C0.903584 169.748 0.906784 169.784 0.910818 169.813C1.47936 170.337 2.14454 169.836 2.15519 169.758C2.15594 169.747 2.15665 169.731 2.15679 169.726C2.15697 169.719 2.15703 169.712 2.15706 169.709C2.15712 169.701 2.15714 169.69 2.15714 169.678H0.902798C0.902798 169.689 0.902775 169.696 0.902752 169.699C0.902733 169.701 0.902736 169.699 0.902856 169.694C0.902967 169.69 0.90364 169.675 0.904347 169.664C0.914965 169.587 1.5801 169.086 2.1486 169.61C2.1526 169.638 2.15575 169.674 2.15612 169.681C2.15625 169.684 2.15642 169.689 2.15646 169.69C2.1565 169.691 2.15649 169.691 2.15644 169.689C2.15635 169.684 2.15623 169.676 2.15606 169.664C2.15541 169.615 2.15442 169.519 2.1531 169.377C2.15047 169.092 2.14659 168.627 2.14159 168C2.13159 166.746 2.1171 164.845 2.09916 162.443C2.06327 157.638 2.01359 150.833 1.95838 143.203C1.84797 127.944 1.71548 109.388 1.62715 96.9553L0.372846 96.9642ZM1.92295 97.4385C1.77273 97.1856 1.66264 96.9475 1.58966 96.7461L0.41034 97.1734C0.511825 97.4535 0.656598 97.7627 0.844493 98.079L1.92295 97.4385ZM0.372846 44.2818C0.47573 58.7639 0.638534 81.5527 0.756566 97.7633L2.01087 97.7542C1.89284 81.5437 1.73004 58.7549 1.62715 44.2729L0.372846 44.2818Z" fill="black"/>
<path fill-rule="evenodd" clip-rule="evenodd" d="M164.064 44.2773C163.511 45.7401 161.407 48.4148 157.422 47.4117C153.437 46.4087 150.964 49.0834 150.226 50.5461C148.75 51.5909 145.134 53.0537 142.477 50.5461C139.156 47.4117 131.96 44.9042 128.085 50.5461C126.794 51.5909 123.325 53.0537 119.782 50.5461C115.354 47.4117 103.177 46.158 107.051 61.2031C108.712 64.1286 111.037 71.1078 107.051 75.6214C103.066 80.1349 106.129 86.2783 108.158 88.7858C109.081 90.4575 110.373 94.8039 108.158 98.8159C107.043 100.837 106.108 104.283 106.366 107.391C106.186 109.105 106.371 111.244 107.051 113.886C108.712 116.811 111.037 123.79 107.051 128.304C103.066 132.817 106.129 138.961 108.158 141.468C109.081 143.14 110.373 147.486 108.158 151.498C105.391 156.513 103.73 170.305 118.675 165.917C120.705 163.827 125.76 160.902 129.746 165.917C131.406 167.379 135.724 169.552 139.709 166.543C144.691 162.782 148.566 163.409 152.994 165.917C153.547 166.961 155.097 168.8 156.868 167.797C159.083 166.543 163.511 167.797 163.511 169.678C163.511 171.182 163.88 121.826 164.064 96.9598C163.973 97.2005 163.84 97.4741 163.663 97.7588C163.787 81.5482 163.957 58.7594 164.064 44.2773Z" fill="black"/>
<path d="M157.422 47.4117L157.575 46.8035L157.422 47.4117ZM164.064 44.2773L163.478 44.0554L164.691 44.282L164.064 44.2773ZM150.226 50.5461L150.786 50.8287L150.716 50.9679L150.588 51.0581L150.226 50.5461ZM142.477 50.5461L142.907 50.09L142.477 50.5461ZM128.085 50.5461L128.602 50.9012L128.551 50.9764L128.48 51.0337L128.085 50.5461ZM119.782 50.5461L120.145 50.0342L119.782 50.5461ZM107.051 61.2031L106.506 61.5127L106.465 61.4402L106.444 61.3595L107.051 61.2031ZM108.158 88.7858L108.646 88.3913L108.681 88.4343L108.708 88.4828L108.158 88.7858ZM108.158 98.8159L107.609 98.5129L108.158 98.8159ZM106.366 107.391L106.991 107.339L106.996 107.398L106.99 107.456L106.366 107.391ZM107.051 113.886L106.506 114.195L106.465 114.123L106.444 114.042L107.051 113.886ZM108.158 141.468L108.646 141.074L108.681 141.117L108.708 141.165L108.158 141.468ZM108.158 151.498L107.609 151.195L108.158 151.498ZM118.675 165.917L119.125 166.354L119.01 166.472L118.852 166.518L118.675 165.917ZM129.746 165.917L129.331 166.387L129.289 166.35L129.255 166.307L129.746 165.917ZM139.709 166.543L139.331 166.043L139.709 166.543ZM152.994 165.917L153.303 165.371L153.462 165.461L153.548 165.623L152.994 165.917ZM156.868 167.797L156.559 167.251H156.559L156.868 167.797ZM164.064 96.9598L163.478 96.7378L164.691 96.9644L164.064 96.9598ZM163.663 97.7588L164.196 98.0894L163.019 99.9868L163.036 97.754L163.663 97.7588ZM157.575 46.8035C159.395 47.2616 160.736 46.8759 161.683 46.2468C162.653 45.6026 163.241 44.6809 163.478 44.0554L164.651 44.4993C164.334 45.3365 163.594 46.4835 162.377 47.2916C161.138 48.1148 159.434 48.5649 157.269 48.0199L157.575 46.8035ZM149.666 50.2636C150.478 48.6539 153.197 45.7016 157.575 46.8035L157.269 48.0199C153.677 47.1159 151.45 49.513 150.786 50.8287L149.666 50.2636ZM142.907 50.09C144.067 51.1848 145.432 51.4213 146.714 51.2562C148.015 51.0888 149.193 50.5091 149.864 50.0342L150.588 51.0581C149.783 51.6279 148.415 52.302 146.874 52.5003C145.315 52.7009 143.543 52.415 142.046 51.0023L142.907 50.09ZM127.568 50.1911C129.661 47.1432 132.678 46.2971 135.561 46.632C138.409 46.9629 141.161 48.4417 142.907 50.09L142.046 51.0023C140.472 49.5162 137.965 48.174 135.416 47.878C132.903 47.5861 130.384 48.3072 128.602 50.9012L127.568 50.1911ZM120.145 50.0342C123.385 52.3275 126.539 50.9906 127.691 50.0585L128.48 51.0337C127.049 52.1913 123.265 53.7799 119.42 51.0581L120.145 50.0342ZM106.444 61.3595C105.459 57.5349 105.469 54.6565 106.19 52.5473C106.92 50.4101 108.361 49.1202 110.082 48.4706C111.779 47.83 113.719 47.8198 115.497 48.1571C117.276 48.4945 118.954 49.1914 120.145 50.0342L119.42 51.0581C118.397 50.3337 116.892 49.6984 115.263 49.3894C113.634 49.0803 111.942 49.1092 110.525 49.6441C109.132 50.1699 107.979 51.1916 107.377 52.9528C106.766 54.742 106.706 57.3487 107.659 61.0467L106.444 61.3595ZM106.581 75.2062C108.416 73.1285 108.825 70.4573 108.545 67.8844C108.265 65.3093 107.302 62.9147 106.506 61.5127L107.597 60.8935C108.462 62.4169 109.491 64.9747 109.792 67.749C110.094 70.5254 109.672 73.6007 107.522 76.0365L106.581 75.2062ZM107.671 89.1804C106.609 87.8683 105.283 85.6181 104.736 83.0882C104.187 80.5426 104.419 77.6547 106.581 75.2062L107.522 76.0365C105.698 78.1015 105.47 80.5421 105.962 82.8235C106.458 85.1206 107.678 87.1958 108.646 88.3913L107.671 89.1804ZM107.609 98.5129C109.681 94.7582 108.472 90.6528 107.609 89.0889L108.708 88.4828C109.69 90.2622 111.064 94.8496 108.708 99.1189L107.609 98.5129ZM105.741 107.443C105.471 104.201 106.44 100.632 107.609 98.5129L108.708 99.1189C107.647 101.041 106.744 104.365 106.991 107.339L105.741 107.443ZM106.444 114.042C105.751 111.352 105.552 109.135 105.742 107.325L106.99 107.456C106.819 109.075 106.991 111.136 107.659 113.729L106.444 114.042ZM106.581 127.889C108.416 125.811 108.825 123.14 108.545 120.567C108.265 117.992 107.302 115.597 106.506 114.195L107.597 113.576C108.462 115.099 109.491 117.657 109.792 120.431C110.094 123.208 109.672 126.283 107.522 128.719L106.581 127.889ZM107.671 141.863C106.609 140.551 105.283 138.301 104.736 135.771C104.187 133.225 104.419 130.337 106.581 127.889L107.522 128.719C105.698 130.784 105.47 133.225 105.962 135.506C106.458 137.803 107.678 139.878 108.646 141.074L107.671 141.863ZM107.609 151.195C109.681 147.441 108.472 143.335 107.609 141.771L108.708 141.165C109.69 142.945 111.064 147.532 108.708 151.801L107.609 151.195ZM118.852 166.518C115.047 167.636 112.191 167.629 110.107 166.803C107.995 165.966 106.775 164.327 106.176 162.422C105.584 160.535 105.593 158.372 105.913 156.384C106.234 154.394 106.878 152.521 107.609 151.195L108.708 151.801C108.055 152.983 107.453 154.715 107.152 156.584C106.85 158.455 106.858 160.406 107.373 162.046C107.882 163.666 108.876 164.966 110.569 165.637C112.29 166.319 114.831 166.392 118.499 165.315L118.852 166.518ZM129.255 166.307C127.407 163.982 125.38 163.545 123.589 163.869C121.74 164.205 120.08 165.37 119.125 166.354L118.226 165.48C119.3 164.373 121.183 163.031 123.365 162.635C125.606 162.229 128.099 162.836 130.237 165.526L129.255 166.307ZM140.087 167.044C137.93 168.672 135.667 168.901 133.735 168.522C131.825 168.148 130.232 167.18 129.331 166.387L130.16 165.446C130.92 166.115 132.316 166.966 133.976 167.291C135.615 167.613 137.503 167.424 139.331 166.043L140.087 167.044ZM152.685 166.462C150.512 165.232 148.548 164.506 146.559 164.506C144.584 164.506 142.499 165.223 140.087 167.044L139.331 166.043C141.901 164.103 144.245 163.252 146.559 163.252C148.86 163.252 151.047 164.093 153.303 165.371L152.685 166.462ZM157.177 168.343C156.023 168.997 154.931 168.698 154.12 168.142C153.333 167.603 152.747 166.791 152.44 166.21L153.548 165.623C153.794 166.087 154.26 166.717 154.829 167.108C155.374 167.481 155.943 167.601 156.559 167.251L157.177 168.343ZM162.884 169.678C162.884 169.472 162.762 169.202 162.391 168.903C162.025 168.608 161.486 168.346 160.849 168.166C159.551 167.798 158.082 167.831 157.177 168.343L156.559 167.251C157.869 166.51 159.721 166.543 161.191 166.959C161.938 167.17 162.644 167.496 163.178 167.926C163.706 168.351 164.138 168.944 164.138 169.678H162.884ZM164.691 96.9644C164.599 109.398 164.461 127.953 164.345 143.213C164.288 150.842 164.236 157.648 164.198 162.452C164.18 164.854 164.165 166.756 164.154 168.01C164.149 168.637 164.145 169.103 164.142 169.388C164.141 169.531 164.14 169.629 164.139 169.681C164.139 169.694 164.139 169.705 164.138 169.714C164.138 169.718 164.138 169.723 164.138 169.728C164.138 169.731 164.138 169.737 164.137 169.741C164.137 169.75 164.134 169.787 164.129 169.817C163.563 170.337 162.897 169.841 162.886 169.76C162.885 169.748 162.884 169.732 162.884 169.727C162.884 169.719 162.884 169.712 162.884 169.709C162.884 169.701 162.884 169.69 162.884 169.678H164.138C164.138 169.689 164.138 169.696 164.138 169.699C164.138 169.701 164.138 169.698 164.138 169.693C164.138 169.689 164.137 169.674 164.136 169.662C164.125 169.582 163.459 169.087 162.893 169.605C162.888 169.635 162.885 169.672 162.885 169.68C162.884 169.683 162.884 169.688 162.884 169.689C162.884 169.69 162.884 169.691 162.884 169.688C162.884 169.684 162.884 169.676 162.885 169.663C162.885 169.615 162.886 169.519 162.888 169.376C162.89 169.092 162.895 168.627 162.9 168C162.91 166.746 162.925 164.844 162.944 162.442C162.982 157.638 163.033 150.833 163.091 143.203C163.206 127.944 163.345 109.388 163.437 96.9551L164.691 96.9644ZM163.13 97.4281C163.287 97.1755 163.402 96.9381 163.478 96.7378L164.651 97.1817C164.544 97.4629 164.393 97.7728 164.196 98.0894L163.13 97.4281ZM164.691 44.282C164.584 58.7641 164.414 81.5529 164.291 97.7635L163.036 97.754C163.16 81.5435 163.33 58.7547 163.437 44.2727L164.691 44.282Z" fill="black"/>
<path d="M502.1 47.736C505.492 48.8428 507.282 45.8914 507.753 44.2773C507.596 71.716 507.282 126.178 507.282 124.518C507.282 122.443 503.514 121.059 501.629 122.443C500.122 123.55 498.803 121.521 498.332 120.368C494.563 117.601 491.266 116.909 487.026 121.059C483.634 124.38 479.96 121.982 478.546 120.368C475.155 114.834 470.852 118.062 469.125 120.368C456.405 125.21 457.819 109.992 460.174 104.458C462.058 100.031 460.959 95.2348 460.174 93.3902C458.447 90.6232 455.84 83.8443 459.232 78.8638C462.624 73.8834 460.645 66.1821 459.232 62.9541C455.934 46.3525 466.298 47.736 470.067 51.1946C473.082 53.9616 476.034 52.3475 477.133 51.1946C480.431 44.9691 486.555 47.736 489.381 51.1946C491.642 53.9616 494.72 52.3475 495.976 51.1946C496.604 49.5806 498.709 46.6292 502.1 47.736Z" fill="black" stroke="black" stroke-width="1.25434"/>
<path d="M379.192 47.736C375.8 48.8428 374.01 45.8914 373.539 44.2773C373.696 71.716 374.01 126.178 374.01 124.518C374.01 122.443 377.779 121.059 379.663 122.443C381.171 123.55 382.49 121.521 382.961 120.368C386.729 117.601 390.027 116.909 394.267 121.059C397.658 124.38 401.333 121.982 402.746 120.368C406.138 114.834 410.441 118.062 412.168 120.368C424.887 125.21 423.474 109.992 421.118 104.458C419.234 100.031 420.333 95.2348 421.118 93.3902C422.846 90.6232 425.452 83.8443 422.061 78.8638C418.669 73.8834 420.647 66.1821 422.061 62.9541C425.358 46.3525 414.994 47.736 411.226 51.1946C408.211 53.9616 405.259 52.3475 404.159 51.1946C400.862 44.9691 394.738 47.736 391.911 51.1946C389.65 53.9616 386.572 52.3475 385.316 51.1946C384.688 49.5806 382.584 46.6292 379.192 47.736Z" fill="black" stroke="black" stroke-width="1.25434"/>
</svg>
